<svg width="20" height="20" viewBox="0 0 20 20" fill="none" xmlns="http://www.w3.org/2000/svg">
<path d="M5.00002 10L8.75002 13.75L15 6.25" stroke="#165AB7" stroke-width="1.5" stroke-linecap="round" stroke-linejoin="round"/>
<path d="M2 1.5H18V-1.5H2V1.5ZM18.5 2V18H21.5V2H18.5ZM18 18.5H2V21.5H18V18.5ZM1.5 18V2H-1.5V18H1.5ZM2 18.5C1.72386 18.5 1.5 18.2761 1.5 18H-1.5C-1.5 19.933 0.0670043 21.5 2 21.5V18.5ZM18.5 18C18.5 18.2761 18.2761 18.5 18 18.5V21.5C19.933 21.5 21.5 19.933 21.5 18H18.5ZM18 1.5C18.2761 1.5 18.5 1.72386 18.5 2H21.5C21.5 0.067003 19.933 -1.5 18 -1.5V1.5ZM2 -1.5C0.067003 -1.5 -1.5 0.0670043 -1.5 2H1.5C1.5 1.72386 1.72386 1.5 2 1.5V-1.5Z" fill="#165AB7"/>
</svg>
